#N canvas 0 0 447 376 10;
#X declare -lib mrpeach;
#X obj 59 92 tgl 50 0 empty empty empty 17 7 0 10 -262144 -1 -1 0 1
;
#X obj 114 307 udpsend;
#X obj 59 244 packOSC;
#X msg 59 172 send /kinect/leftmoving \$1;
#X obj 59 149 change;
#X obj 193 217 loadbang;
#X msg 240 170 send /kinect/tempo \$1;
#X obj 240 92 tgl 50 0 empty empty empty 17 7 0 10 -262144 -1 -1 0
1;
#X obj 240 149 change;
#X text 41 25 Clicking this toggle sends nao that the left hand is
moving. The right square sends a message that a repetitive tempo is
detected. Turning either these squares off sends a 0 in these messages.
;
#X msg 193 242 connect 127.0.0.1 1337;
#X obj 44 5 import mrpeach;
#X connect 0 0 4 0;
#X connect 2 0 1 0;
#X connect 3 0 2 0;
#X connect 4 0 3 0;
#X connect 5 0 10 0;
#X connect 6 0 2 0;
#X connect 7 0 8 0;
#X connect 8 0 6 0;
#X connect 10 0 1 0;
