#N canvas 0 0 1362 696 10;
#X declare -lib mrpeach;
#X obj 4 -232 import mrpeach;
#X obj 28 -18 metro;
#X obj 10 -53 tgl 15 0 empty empty empty 17 7 0 10 -262144 -1 -1 1
1;
#X obj 16 110 hradio 30 1 0 16 empty empty empty 0 -8 0 10 -262144
-1 -1 2;
#X floatatom 76 85 5 0 0 0 - - -;
#X obj 16 53 counter 1 16;
#X obj 16 83 - 1;
#X obj 16 191 % 4;
#X obj 16 222 select 0;
#X obj 17 273 perk-bassdrum;
#X obj 159 471 dac~;
#X obj 218 227 perk-hihat;
#N canvas 629 213 450 300 euclid 0;
#X obj 49 68 inlet;
#X obj 138 157 inlet;
#X obj 106 131 inlet;
#X obj 49 267 select 1;
#X obj 49 299 outlet;
#X obj 162 185 inlet;
#X text 145 130 specify desired number of hits per bar;
#X text 208 182 specify length of bar;
#X text 172 156 rhythm offset/rotation;
#X text 88 66 <-- send an integer to find out if there should be a
hit on that beat;
#X obj 49 201 % \$3;
#X text 111 266 <-- bang out on each hit. (Silent on rest.);
#X obj 49 137 + \$2;
#X obj 49 169 * \$1;
#X obj 49 235 < \$1;
#X connect 0 0 12 0;
#X connect 1 0 12 1;
#X connect 2 0 13 1;
#X connect 2 0 14 1;
#X connect 3 0 4 0;
#X connect 5 0 10 1;
#X connect 10 0 14 0;
#X connect 12 0 13 0;
#X connect 13 0 10 0;
#X connect 14 0 3 0;
#X restore 417 193 pd euclid;
#X obj 417 248 perk-snare;
#X floatatom 410 147 5 0 0 0 - - -;
#X floatatom 436 167 5 0 0 0 - - -;
#X obj 160 412 +~;
#X obj 97 -43 select 1;
#X obj 308 13 random 4;
#X obj 322 43 + 3;
#X obj 378 12 random 16;
#X obj 885 250 perk-bassdrum;
#N canvas 629 213 450 300 euclid 0;
#X obj 49 68 inlet;
#X obj 138 157 inlet;
#X obj 106 131 inlet;
#X obj 49 267 select 1;
#X obj 49 299 outlet;
#X obj 162 185 inlet;
#X text 145 130 specify desired number of hits per bar;
#X text 208 182 specify length of bar;
#X text 172 156 rhythm offset/rotation;
#X text 88 66 <-- send an integer to find out if there should be a
hit on that beat;
#X obj 49 201 % \$3;
#X text 111 266 <-- bang out on each hit. (Silent on rest.);
#X obj 49 137 + \$2;
#X obj 49 169 * \$1;
#X obj 49 235 < \$1;
#X connect 0 0 12 0;
#X connect 1 0 12 1;
#X connect 2 0 13 1;
#X connect 2 0 14 1;
#X connect 3 0 4 0;
#X connect 5 0 10 1;
#X connect 10 0 14 0;
#X connect 12 0 13 0;
#X connect 13 0 10 0;
#X connect 14 0 3 0;
#X restore 781 80 pd euclid;
#X floatatom 774 34 5 0 0 0 - - -;
#X floatatom 800 54 5 0 0 0 - - -;
#X obj 726 -27 random 4;
#X obj 740 3 + 3;
#X obj 796 -28 random 16;
#X obj 254 442 freeverb~;
#X msg 343 421 damping \$1;
#X msg 424 402 wet \$1;
#X msg 424 424 dry \$1;
#X msg 343 399 roomsize 0.5;
#X obj 159 440 *~ 0.7;
#X obj 474 156 init 16;
#X obj 832 27 init 16;
#N canvas -8 -8 1366 685 tempo 0;
#X obj 121 54 unpackOSC;
#X obj 121 26 udpreceive 7000;
#X obj 243 317 yin 3;
#X obj 230 348 prepend set;
#X msg 230 376 86;
#X obj 372 304 metro 10;
#X obj 370 335 counter;
#X obj 370 385 select 1;
#X obj 369 279 tgl 15 0 empty empty empty 17 7 0 10 -262144 -1 -1 1
1;
#X msg 371 411 0;
#X obj 376 243 init 1;
#X floatatom 323 365 5 0 0 0 - - -;
#X obj 250 497 mean_n 15;
#X obj 260 442 timer;
#X obj 260 414 t b b;
#X obj 246 530 t b f;
#X msg 245 560 1;
#X obj 248 586 /;
#X floatatom 246 614 5 0 0 0 - - -;
#X obj 210 630 *;
#X floatatom 202 655 5 0 0 0 - - -;
#X obj 191 729 outlet;
#X obj 190 704 smooth;
#X obj 370 682 change;
#X msg 413 413 1;
#X obj 456 713 tgl 15 0 empty empty empty 17 7 0 10 -262144 -1 -1 0
1;
#X obj 371 359 > 250;
#X obj 361 718 outlet;
#X obj 192 679 * 275;
#X obj 257 465 moses 50;
#X msg 257 290 maxdelay 200;
#X obj 65 529 vsl 15 128 -1 1 0 0 empty empty empty 0 -9 0 10 -262144
-1 -1 0 1;
#X obj 63 496 unpack f f f;
#X obj 95 529 vsl 15 128 -1 1 0 0 empty empty empty 0 -9 0 10 -262144
-1 -1 0 1;
#X obj 125 529 vsl 15 128 -5 5 0 0 empty empty empty 0 -9 0 10 -262144
-1 -1 0 1;
#X obj 74 167 prepend set;
#X msg 75 191 /1 0.543267 -0.431765 2.73586;
#N canvas 377 244 597 401 closestPerson 0;
#X obj 49 358 max_index;
#X obj 49 191 routeOSC /hand_right;
#X obj 49 166 inlet;
#N canvas 730 373 450 300 giveZ 0;
#X obj 81 60 inlet;
#X obj 78 210 outlet;
#X obj 39 91 unpack f f f;
#X obj 91 133 * -1;
#X connect 0 0 2 0;
#X connect 2 2 3 0;
#X connect 3 0 1 0;
#X restore 23 258 pd giveZ;
#X obj 281 164 inlet;
#X msg 300 238 0 0 100;
#X msg 320 258 0 0 100;
#X msg 360 238 0 0 100;
#X msg 380 258 0 0 100;
#X msg 420 238 0 0 100;
#X msg 440 258 0 0 100;
#X msg 480 238 0 0 100;
#X msg 500 258 0 0 100;
#X obj 47 322 pack f f f f f f f f;
#N canvas 730 373 450 300 giveZ 0;
#X obj 81 60 inlet;
#X obj 78 210 outlet;
#X obj 39 91 unpack f f f;
#X obj 91 133 * -1;
#X connect 0 0 2 0;
#X connect 2 2 3 0;
#X connect 3 0 1 0;
#X restore 43 278 pd giveZ;
#N canvas 730 373 450 300 giveZ 0;
#X obj 81 60 inlet;
#X obj 78 210 outlet;
#X obj 39 91 unpack f f f;
#X obj 91 133 * -1;
#X connect 0 0 2 0;
#X connect 2 2 3 0;
#X connect 3 0 1 0;
#X restore 83 258 pd giveZ;
#N canvas 730 373 450 300 giveZ 0;
#X obj 81 60 inlet;
#X obj 78 210 outlet;
#X obj 39 91 unpack f f f;
#X obj 91 133 * -1;
#X connect 0 0 2 0;
#X connect 2 2 3 0;
#X connect 3 0 1 0;
#X restore 103 278 pd giveZ;
#N canvas 730 373 450 300 giveZ 0;
#X obj 81 60 inlet;
#X obj 78 210 outlet;
#X obj 39 91 unpack f f f;
#X obj 91 133 * -1;
#X connect 0 0 2 0;
#X connect 2 2 3 0;
#X connect 3 0 1 0;
#X restore 143 258 pd giveZ;
#N canvas 730 373 450 300 giveZ 0;
#X obj 81 60 inlet;
#X obj 78 210 outlet;
#X obj 39 91 unpack f f f;
#X obj 91 133 * -1;
#X connect 0 0 2 0;
#X connect 2 2 3 0;
#X connect 3 0 1 0;
#X restore 163 278 pd giveZ;
#N canvas 730 373 450 300 giveZ 0;
#X obj 81 60 inlet;
#X obj 78 210 outlet;
#X obj 39 91 unpack f f f;
#X obj 91 133 * -1;
#X connect 0 0 2 0;
#X connect 2 2 3 0;
#X connect 3 0 1 0;
#X restore 203 258 pd giveZ;
#N canvas 730 373 450 300 giveZ 0;
#X obj 81 60 inlet;
#X obj 78 210 outlet;
#X obj 39 91 unpack f f f;
#X obj 91 133 * -1;
#X connect 0 0 2 0;
#X connect 2 2 3 0;
#X connect 3 0 1 0;
#X restore 223 278 pd giveZ;
#X obj 185 350 prepend set;
#X msg 185 376 -100 -100 -100 -100 -100 -100 -100 -100;
#X obj 47 410 outlet;
#X floatatom 9 382 5 0 0 0 - - -;
#X floatatom -15 306 5 0 0 0 - - -;
#X floatatom -13 334 5 0 0 0 - - -;
#X obj 48 218 routeOSC /0 /1 /2 /3 /4 /5 /6 /7;
#X obj 289 206 select 0 1 2 3 4 5 6 7;
#X obj 248 307 t b;
#X obj 378 58 loadbang;
#X msg 382 91 0 \, 1 \, 2 \, 3 \, 4 \, 5 \, 6 \, 7;
#X obj 50 382 + 1;
#X connect 0 0 24 0;
#X connect 0 0 32 0;
#X connect 1 0 27 0;
#X connect 2 0 1 0;
#X connect 3 0 13 0;
#X connect 3 0 25 0;
#X connect 4 0 28 0;
#X connect 5 0 3 0;
#X connect 6 0 14 0;
#X connect 7 0 15 0;
#X connect 8 0 16 0;
#X connect 9 0 17 0;
#X connect 10 0 18 0;
#X connect 11 0 19 0;
#X connect 12 0 20 0;
#X connect 13 0 0 0;
#X connect 13 0 21 0;
#X connect 14 0 13 1;
#X connect 14 0 26 0;
#X connect 14 0 29 0;
#X connect 15 0 13 2;
#X connect 15 0 29 0;
#X connect 16 0 13 3;
#X connect 16 0 29 0;
#X connect 17 0 13 4;
#X connect 17 0 29 0;
#X connect 18 0 13 5;
#X connect 18 0 29 0;
#X connect 19 0 13 6;
#X connect 19 0 29 0;
#X connect 20 0 13 7;
#X connect 20 0 29 0;
#X connect 21 0 22 0;
#X connect 27 0 3 0;
#X connect 27 1 14 0;
#X connect 27 2 15 0;
#X connect 27 3 16 0;
#X connect 27 4 17 0;
#X connect 27 5 18 0;
#X connect 27 6 19 0;
#X connect 27 7 20 0;
#X connect 28 0 5 0;
#X connect 28 1 6 0;
#X connect 28 2 7 0;
#X connect 28 3 8 0;
#X connect 28 4 9 0;
#X connect 28 5 10 0;
#X connect 28 6 11 0;
#X connect 28 7 12 0;
#X connect 29 0 13 0;
#X connect 30 0 31 0;
#X connect 31 0 28 0;
#X connect 32 0 23 0;
#X restore 425 165 pd closestPerson;
#X obj 121 82 routeOSC /joint /position /lost_user;
#X obj 79 369 switch 8;
#X floatatom 421 206 5 0 0 0 - - -;
#X obj 134 238 routeOSC /0 /1 /2 /3 /4 /5 /6 /7;
#N canvas 110 0 970 680 size 0;
#X obj 75 21 inlet;
#X obj 82 351 outlet;
#X obj 60 120 last_n 50;
#X obj 83 171 minimum;
#X obj 21 172 maximum;
#X obj 55 206 -;
#X obj 190 120 last_n 50;
#X obj 213 171 minimum;
#X obj 151 172 maximum;
#X obj 185 206 -;
#X obj 105 292 prepend set;
#X msg 105 316 0.03856;
#X obj 320 120 last_n 50;
#X obj 343 171 minimum;
#X obj 281 172 maximum;
#X obj 315 206 -;
#X obj 90 246 expr sqrt($f1*$f1 + $f2*$f2 + $f3*$f3);
#X obj 78 64 unpack f f f;
#X connect 0 0 17 0;
#X connect 2 0 4 0;
#X connect 2 0 3 0;
#X connect 3 0 5 1;
#X connect 4 0 5 0;
#X connect 5 0 16 0;
#X connect 6 0 8 0;
#X connect 6 0 7 0;
#X connect 7 0 9 1;
#X connect 8 0 9 0;
#X connect 9 0 16 1;
#X connect 10 0 11 0;
#X connect 12 0 14 0;
#X connect 12 0 13 0;
#X connect 13 0 15 1;
#X connect 14 0 15 0;
#X connect 15 0 16 2;
#X connect 16 0 10 0;
#X connect 16 0 1 0;
#X connect 17 0 2 0;
#X connect 17 1 6 0;
#X connect 17 2 12 0;
#X restore 6 443 pd size;
#X obj 15 529 vsl 15 128 0 1 0 0 empty empty empty 0 -9 0 10 -262144
-1 -1 0 1;
#X obj 549 673 outlet;
#X obj 506 354 switch 8;
#X obj 561 223 routeOSC /0 /1 /2 /3 /4 /5 /6 /7;
#X obj 672 442 vsl 15 128 -1 1 0 0 empty empty empty 0 -9 0 10 -262144
-1 -1 0 1;
#X obj 670 409 unpack f f f;
#X obj 702 442 vsl 15 128 -1 1 0 0 empty empty empty 0 -9 0 10 -262144
-1 -1 0 1;
#X obj 732 442 vsl 15 128 -5 5 0 0 empty empty empty 0 -9 0 10 -262144
-1 -1 0 1;
#X obj 131 121 routeOSC /hand_right /hand_left;
#X floatatom 688 605 5 0 0 0 - - -;
#X obj 803 623 + 0.5;
#X obj 805 653 / 1.5;
#X floatatom 801 723 5 0 0 0 - - -;
#X obj 821 540 smooth;
#X obj 721 702 outlet;
#X connect 0 0 38 0;
#X connect 1 0 0 0;
#X connect 2 0 3 0;
#X connect 2 0 6 2;
#X connect 2 0 14 0;
#X connect 2 0 19 0;
#X connect 3 0 4 0;
#X connect 5 0 6 0;
#X connect 6 0 11 0;
#X connect 6 0 26 0;
#X connect 7 0 9 0;
#X connect 7 1 24 0;
#X connect 8 0 5 0;
#X connect 9 0 23 0;
#X connect 10 0 8 0;
#X connect 12 0 15 0;
#X connect 13 0 29 0;
#X connect 14 0 13 0;
#X connect 14 1 13 1;
#X connect 15 0 16 0;
#X connect 15 1 17 1;
#X connect 16 0 17 0;
#X connect 17 0 18 0;
#X connect 18 0 19 1;
#X connect 19 0 20 0;
#X connect 20 0 28 0;
#X connect 22 0 21 0;
#X connect 23 0 25 0;
#X connect 23 0 27 0;
#X connect 24 0 23 0;
#X connect 26 0 7 0;
#X connect 28 0 22 0;
#X connect 29 0 12 0;
#X connect 30 0 2 0;
#X connect 32 0 31 0;
#X connect 32 1 33 0;
#X connect 32 2 34 0;
#X connect 35 0 36 0;
#X connect 37 0 39 0;
#X connect 37 0 40 0;
#X connect 37 0 45 0;
#X connect 38 0 37 0;
#X connect 38 0 51 0;
#X connect 38 2 37 1;
#X connect 39 0 32 0;
#X connect 39 0 2 0;
#X connect 39 0 42 0;
#X connect 41 0 39 1;
#X connect 41 1 39 2;
#X connect 41 2 39 3;
#X connect 41 3 39 4;
#X connect 41 4 39 5;
#X connect 41 5 39 6;
#X connect 41 6 39 7;
#X connect 41 7 39 8;
#X connect 42 0 43 0;
#X connect 42 0 44 0;
#X connect 45 0 48 0;
#X connect 46 0 45 1;
#X connect 46 1 45 2;
#X connect 46 2 45 3;
#X connect 46 3 45 4;
#X connect 46 4 45 5;
#X connect 46 5 45 6;
#X connect 46 6 45 7;
#X connect 46 7 45 8;
#X connect 48 0 47 0;
#X connect 48 1 49 0;
#X connect 48 1 56 0;
#X connect 48 2 50 0;
#X connect 49 0 52 0;
#X connect 51 0 35 0;
#X connect 51 0 41 0;
#X connect 51 1 46 0;
#X connect 53 0 54 0;
#X connect 54 0 55 0;
#X connect 54 0 57 0;
#X connect 56 0 53 0;
#X restore 38 -181 pd tempo;
#X obj 122 13 print;
#X floatatom 131 -118 5 0 0 0 - - -;
#X obj 550 143 loadbang;
#X msg 550 174 0 0.8 \, 2 1 \, 4 0.2;
#X msg 85 237 6 \$1;
#X obj 87 214 r \$0time;
#X obj 167 -141 s \$0time;
#X obj 276 174 r \$0time;
#X msg 274 197 7 \$1;
#X obj 940 185 r \$0leftY;
#X msg 938 208 5 \$1;
#X obj 554 200 r \$0leftY;
#X msg 552 223 7 \$1;
#X obj 214 167 r \$0leftY;
#X msg 210 190 10 \$1;
#X obj 147 215 r \$0leftY;
#X msg 145 238 5 \$1;
#X obj 252 -152 s \$0leftY;
#X floatatom 100 -80 5 0 0 0 - - -;
#X obj 1048 76 udpsend 7001;
#X msg 1002 35 connect 127.0.0.1 7001;
#X msg 1013 -9 send /nxt 3;
#X obj 968 -54 packOSC;
#X msg 969 -95 /nxt 1;
#X connect 1 0 5 0;
#X connect 2 0 1 0;
#X connect 5 0 4 0;
#X connect 5 0 6 0;
#X connect 6 0 3 0;
#X connect 6 0 7 0;
#X connect 6 0 12 0;
#X connect 6 0 22 0;
#X connect 6 0 11 0;
#X connect 7 0 8 0;
#X connect 8 0 9 0;
#X connect 9 0 16 0;
#X connect 11 0 16 0;
#X connect 12 0 13 0;
#X connect 13 0 16 1;
#X connect 14 0 12 1;
#X connect 15 0 12 2;
#X connect 16 0 33 0;
#X connect 17 0 5 2;
#X connect 17 0 18 0;
#X connect 17 0 20 0;
#X connect 17 0 25 0;
#X connect 17 0 27 0;
#X connect 17 0 37 0;
#X connect 18 0 19 0;
#X connect 19 0 14 0;
#X connect 20 0 15 0;
#X connect 21 0 16 1;
#X connect 22 0 21 0;
#X connect 23 0 22 1;
#X connect 24 0 22 2;
#X connect 25 0 26 0;
#X connect 26 0 23 0;
#X connect 27 0 24 0;
#X connect 28 0 10 0;
#X connect 28 1 10 1;
#X connect 29 0 28 0;
#X connect 30 0 28 0;
#X connect 31 0 28 0;
#X connect 32 0 28 0;
#X connect 33 0 10 0;
#X connect 33 0 10 1;
#X connect 33 0 28 0;
#X connect 34 0 12 3;
#X connect 35 0 22 3;
#X connect 36 0 1 1;
#X connect 36 0 38 0;
#X connect 36 1 17 0;
#X connect 36 1 2 0;
#X connect 36 2 43 0;
#X connect 36 3 54 0;
#X connect 39 0 40 0;
#X connect 40 0 13 1;
#X connect 41 0 9 1;
#X connect 42 0 41 0;
#X connect 44 0 45 0;
#X connect 45 0 11 1;
#X connect 46 0 47 0;
#X connect 47 0 21 1;
#X connect 48 0 49 0;
#X connect 49 0 13 1;
#X connect 50 0 51 0;
#X connect 51 0 11 1;
#X connect 52 0 53 0;
#X connect 53 0 9 1;
#X connect 55 0 1 1;
#X connect 57 0 56 0;
#X connect 58 0 56 0;
#X connect 59 0 56 0;
#X connect 60 0 59 0;
