#N canvas 0 0 667 680 10;
#X declare -lib mrpeach;
#X obj 4 -232 import mrpeach;
#X obj 16 -134 tgl 15 0 empty empty empty 17 7 0 10 -262144 -1 -1 1
1;
#X obj 16 84 hradio 30 1 0 16 empty empty empty 0 -8 0 10 -262144 -1
-1 1;
#X obj 16 -20 counter 1 16;
#X obj 16 27 - 1;
#X obj 125 -95 select 1;
#N canvas 38 47 1250 591 tempo 0;
#X obj 121 34 unpackOSC;
#X obj 121 6 udpreceive 7000;
#X obj 216 373 yin 3;
#X obj 203 404 prepend set;
#X msg 203 432 24;
#X obj 372 304 metro 10;
#X obj 370 335 counter;
#X obj 370 385 select 1;
#X obj 369 279 tgl 15 0 empty empty empty 17 7 0 10 -262144 -1 -1 1
1;
#X msg 371 411 0;
#X obj 376 243 init 1;
#X obj 246 506 mean_n 15;
#X obj 249 459 timer;
#X obj 249 431 t b b;
#X obj 246 530 t b f;
#X msg 245 560 1;
#X obj 248 586 /;
#X floatatom 246 614 5 0 0 0 - - -;
#X obj 210 630 *;
#X floatatom 202 655 5 0 0 0 - - -;
#X obj 182 715 smooth;
#X obj 370 682 change;
#X msg 413 413 1;
#X obj 371 359 > 250;
#X obj 246 482 moses 50;
#X msg 277 336 maxdelay 200;
#X obj 63 526 vsl 15 128 -1 1 0 0 empty empty empty 0 -9 0 10 -262144
-1 -1 0 1;
#X obj 63 496 unpack f f f;
#X obj 93 526 vsl 15 128 -1 1 0 0 empty empty empty 0 -9 0 10 -262144
-1 -1 0 1;
#X obj 123 526 vsl 15 128 -5 5 0 0 empty empty empty 0 -9 0 10 -262144
-1 -1 0 1;
#X obj 74 167 prepend set;
#X msg 75 191 /4 0.453594 -0.0749579 1.91888;
#N canvas 377 244 597 401 closestPerson 0;
#X obj 49 358 max_index;
#X obj 49 191 routeOSC /hand_right;
#X obj 49 166 inlet;
#N canvas 730 373 450 300 giveZ 0;
#X obj 81 60 inlet;
#X obj 78 210 outlet;
#X obj 39 91 unpack f f f;
#X obj 91 133 * -1;
#X connect 0 0 2 0;
#X connect 2 2 3 0;
#X connect 3 0 1 0;
#X restore 23 258 pd giveZ;
#X obj 281 164 inlet;
#X msg 300 238 0 0 100;
#X msg 320 258 0 0 100;
#X msg 360 238 0 0 100;
#X msg 380 258 0 0 100;
#X msg 420 238 0 0 100;
#X msg 440 258 0 0 100;
#X msg 480 238 0 0 100;
#X msg 500 258 0 0 100;
#X obj 47 322 pack f f f f f f f f;
#N canvas 730 373 450 300 giveZ 0;
#X obj 81 60 inlet;
#X obj 78 210 outlet;
#X obj 39 91 unpack f f f;
#X obj 91 133 * -1;
#X connect 0 0 2 0;
#X connect 2 2 3 0;
#X connect 3 0 1 0;
#X restore 43 278 pd giveZ;
#N canvas 730 373 450 300 giveZ 0;
#X obj 81 60 inlet;
#X obj 78 210 outlet;
#X obj 39 91 unpack f f f;
#X obj 91 133 * -1;
#X connect 0 0 2 0;
#X connect 2 2 3 0;
#X connect 3 0 1 0;
#X restore 83 258 pd giveZ;
#N canvas 730 373 450 300 giveZ 0;
#X obj 81 60 inlet;
#X obj 78 210 outlet;
#X obj 39 91 unpack f f f;
#X obj 91 133 * -1;
#X connect 0 0 2 0;
#X connect 2 2 3 0;
#X connect 3 0 1 0;
#X restore 103 278 pd giveZ;
#N canvas 730 373 450 300 giveZ 0;
#X obj 81 60 inlet;
#X obj 78 210 outlet;
#X obj 39 91 unpack f f f;
#X obj 91 133 * -1;
#X connect 0 0 2 0;
#X connect 2 2 3 0;
#X connect 3 0 1 0;
#X restore 143 258 pd giveZ;
#N canvas 730 373 450 300 giveZ 0;
#X obj 81 60 inlet;
#X obj 78 210 outlet;
#X obj 39 91 unpack f f f;
#X obj 91 133 * -1;
#X connect 0 0 2 0;
#X connect 2 2 3 0;
#X connect 3 0 1 0;
#X restore 163 278 pd giveZ;
#N canvas 730 373 450 300 giveZ 0;
#X obj 81 60 inlet;
#X obj 78 210 outlet;
#X obj 39 91 unpack f f f;
#X obj 91 133 * -1;
#X connect 0 0 2 0;
#X connect 2 2 3 0;
#X connect 3 0 1 0;
#X restore 203 258 pd giveZ;
#N canvas 730 373 450 300 giveZ 0;
#X obj 81 60 inlet;
#X obj 78 210 outlet;
#X obj 39 91 unpack f f f;
#X obj 91 133 * -1;
#X connect 0 0 2 0;
#X connect 2 2 3 0;
#X connect 3 0 1 0;
#X restore 223 278 pd giveZ;
#X obj 185 350 prepend set;
#X msg 185 376 -100 -100 -100 -100 -100 -100 -100 -100;
#X obj 47 410 outlet;
#X floatatom 9 382 5 0 0 0 - - -;
#X floatatom -15 306 5 0 0 0 - - -;
#X floatatom -13 334 5 0 0 0 - - -;
#X obj 48 218 routeOSC /0 /1 /2 /3 /4 /5 /6 /7;
#X obj 289 206 select 0 1 2 3 4 5 6 7;
#X obj 248 307 t b;
#X obj 378 58 loadbang;
#X msg 382 91 0 \, 1 \, 2 \, 3 \, 4 \, 5 \, 6 \, 7;
#X obj 50 382 + 1;
#X connect 0 0 24 0;
#X connect 0 0 32 0;
#X connect 1 0 27 0;
#X connect 2 0 1 0;
#X connect 3 0 13 0;
#X connect 3 0 25 0;
#X connect 4 0 28 0;
#X connect 5 0 3 0;
#X connect 6 0 14 0;
#X connect 7 0 15 0;
#X connect 8 0 16 0;
#X connect 9 0 17 0;
#X connect 10 0 18 0;
#X connect 11 0 19 0;
#X connect 12 0 20 0;
#X connect 13 0 0 0;
#X connect 13 0 21 0;
#X connect 14 0 13 1;
#X connect 14 0 26 0;
#X connect 14 0 29 0;
#X connect 15 0 13 2;
#X connect 15 0 29 0;
#X connect 16 0 13 3;
#X connect 16 0 29 0;
#X connect 17 0 13 4;
#X connect 17 0 29 0;
#X connect 18 0 13 5;
#X connect 18 0 29 0;
#X connect 19 0 13 6;
#X connect 19 0 29 0;
#X connect 20 0 13 7;
#X connect 20 0 29 0;
#X connect 21 0 22 0;
#X connect 27 0 3 0;
#X connect 27 1 14 0;
#X connect 27 2 15 0;
#X connect 27 3 16 0;
#X connect 27 4 17 0;
#X connect 27 5 18 0;
#X connect 27 6 19 0;
#X connect 27 7 20 0;
#X connect 28 0 5 0;
#X connect 28 1 6 0;
#X connect 28 2 7 0;
#X connect 28 3 8 0;
#X connect 28 4 9 0;
#X connect 28 5 10 0;
#X connect 28 6 11 0;
#X connect 28 7 12 0;
#X connect 29 0 13 0;
#X connect 30 0 31 0;
#X connect 31 0 28 0;
#X connect 32 0 23 0;
#X restore 425 165 pd closestPerson;
#X obj 131 93 routeOSC /joint /position /lost_user;
#X obj 79 369 switch 8;
#X floatatom 421 206 5 0 0 0 - - -;
#X obj 134 238 routeOSC /0 /1 /2 /3 /4 /5 /6 /7;
#N canvas 110 0 970 680 size 0;
#X obj 75 21 inlet;
#X obj 82 351 outlet;
#X obj 60 120 last_n 50;
#X obj 83 171 minimum;
#X obj 21 172 maximum;
#X obj 55 206 -;
#X obj 190 120 last_n 50;
#X obj 213 171 minimum;
#X obj 151 172 maximum;
#X obj 185 206 -;
#X msg 105 316 0.120917;
#X obj 320 120 last_n 50;
#X obj 343 171 minimum;
#X obj 281 172 maximum;
#X obj 315 206 -;
#X obj 90 246 expr sqrt($f1*$f1 + $f2*$f2 + $f3*$f3);
#X obj 78 64 unpack f f f;
#X connect 0 0 16 0;
#X connect 2 0 4 0;
#X connect 2 0 3 0;
#X connect 3 0 5 1;
#X connect 4 0 5 0;
#X connect 5 0 15 0;
#X connect 6 0 8 0;
#X connect 6 0 7 0;
#X connect 7 0 9 1;
#X connect 8 0 9 0;
#X connect 9 0 15 1;
#X connect 10 0 1 0;
#X connect 11 0 13 0;
#X connect 11 0 12 0;
#X connect 12 0 14 1;
#X connect 13 0 14 0;
#X connect 14 0 15 2;
#X connect 15 0 1 0;
#X connect 16 0 2 0;
#X connect 16 1 6 0;
#X connect 16 2 11 0;
#X restore 92 416 pd size;
#X obj 506 354 switch 8;
#X obj 561 223 routeOSC /0 /1 /2 /3 /4 /5 /6 /7;
#X obj 672 442 vsl 15 128 -1 1 0 0 empty empty empty 0 -9 0 10 -262144
-1 -1 0 1;
#X obj 670 409 unpack f f f;
#X obj 702 442 vsl 15 128 -1 1 0 0 empty empty empty 0 -9 0 10 -262144
-1 -1 0 1;
#X obj 732 442 vsl 15 128 -5 5 0 0 empty empty empty 0 -9 0 10 -262144
-1 -1 0 1;
#X floatatom 688 605 5 0 0 0 - - -;
#X obj 803 623 + 0.5;
#X obj 805 653 / 1.5;
#X obj 821 540 smooth;
#X obj 131 121 routeOSC /hand_right /hand_left /spine;
#X obj 951 336 switch 8;
#X obj 1006 205 routeOSC /0 /1 /2 /3 /4 /5 /6 /7;
#X obj 986 406 vsl 15 128 -1 1 0 0 empty empty empty 0 -9 0 10 -262144
-1 -1 0 1;
#X obj 984 373 unpack f f f;
#X obj 1016 406 vsl 15 128 -1 1 0 0 empty empty empty 0 -9 0 10 -262144
-1 -1 0 1;
#X obj 1046 406 vsl 15 128 -5 5 0 0 empty empty empty 0 -9 0 10 -262144
-1 -1 0 1;
#X floatatom 1002 569 5 0 0 0 - - -;
#X obj 974 614 -;
#X obj 973 639 / -0.6;
#X obj 959 672 smooth;
#X obj 229 318 loadbang;
#X obj 192 679 * 280;
#X msg 219 284 average_threshold 0.12;
#X msg 173 344 dip_threshold 0.15;
#X obj 38 678 smooth 0.3;
#X obj 58 698 smooth 0.3;
#X obj 78 718 smooth 0.3;
#X obj 50 747 pack f f f;
#X obj 129 64 gate;
#X obj 229 22 r instructions;
#X obj 229 47 expr abs($f1 - 1);
#X obj 180 71 init 1;
#X obj 959 700 s \$0leftX;
#X obj 806 681 s \$0leftY;
#X obj 92 444 s \$0time;
#X obj 370 708 s sequenceStart;
#X obj 182 762 s tempo;
#X connect 0 0 67 0;
#X connect 1 0 0 0;
#X connect 2 0 3 0;
#X connect 2 0 6 2;
#X connect 2 0 13 0;
#X connect 2 0 18 0;
#X connect 3 0 4 0;
#X connect 5 0 6 0;
#X connect 6 0 23 0;
#X connect 7 0 9 0;
#X connect 7 1 22 0;
#X connect 8 0 5 0;
#X connect 9 0 21 0;
#X connect 10 0 8 0;
#X connect 11 0 14 0;
#X connect 12 0 24 0;
#X connect 13 0 12 0;
#X connect 13 1 12 1;
#X connect 14 0 15 0;
#X connect 14 1 16 1;
#X connect 15 0 16 0;
#X connect 16 0 17 0;
#X connect 17 0 18 1;
#X connect 18 0 19 0;
#X connect 19 0 60 0;
#X connect 20 0 75 0;
#X connect 21 0 74 0;
#X connect 22 0 21 0;
#X connect 23 0 7 0;
#X connect 24 0 11 0;
#X connect 25 0 2 0;
#X connect 27 0 26 0;
#X connect 27 0 63 0;
#X connect 27 1 28 0;
#X connect 27 1 64 0;
#X connect 27 2 29 0;
#X connect 27 2 65 0;
#X connect 30 0 31 0;
#X connect 32 0 34 0;
#X connect 32 0 35 0;
#X connect 32 0 38 0;
#X connect 32 0 49 0;
#X connect 33 0 32 0;
#X connect 33 0 48 0;
#X connect 33 2 32 1;
#X connect 34 0 27 0;
#X connect 34 0 37 0;
#X connect 36 0 34 1;
#X connect 36 1 34 2;
#X connect 36 2 34 3;
#X connect 36 3 34 4;
#X connect 36 4 34 5;
#X connect 36 5 34 6;
#X connect 36 6 34 7;
#X connect 36 7 34 8;
#X connect 37 0 73 0;
#X connect 38 0 41 0;
#X connect 39 0 38 1;
#X connect 39 1 38 2;
#X connect 39 2 38 3;
#X connect 39 3 38 4;
#X connect 39 4 38 5;
#X connect 39 5 38 6;
#X connect 39 6 38 7;
#X connect 39 7 38 8;
#X connect 40 0 56 0;
#X connect 41 0 40 0;
#X connect 41 1 42 0;
#X connect 41 1 47 0;
#X connect 41 2 43 0;
#X connect 42 0 44 0;
#X connect 45 0 46 0;
#X connect 46 0 72 0;
#X connect 47 0 45 0;
#X connect 48 0 30 0;
#X connect 48 0 36 0;
#X connect 48 1 39 0;
#X connect 48 2 50 0;
#X connect 49 0 52 0;
#X connect 50 0 49 1;
#X connect 50 1 49 2;
#X connect 50 2 49 3;
#X connect 50 3 49 4;
#X connect 50 4 49 5;
#X connect 50 5 49 6;
#X connect 50 6 49 7;
#X connect 50 7 49 8;
#X connect 51 0 56 1;
#X connect 52 0 51 0;
#X connect 52 1 53 0;
#X connect 52 2 54 0;
#X connect 53 0 55 0;
#X connect 56 0 57 0;
#X connect 57 0 58 0;
#X connect 58 0 71 0;
#X connect 59 0 25 0;
#X connect 59 0 62 0;
#X connect 60 0 20 0;
#X connect 61 0 2 0;
#X connect 62 0 2 0;
#X connect 63 0 66 0;
#X connect 64 0 66 1;
#X connect 65 0 66 2;
#X connect 66 0 2 0;
#X connect 67 0 33 0;
#X connect 68 0 69 0;
#X connect 69 0 67 1;
#X connect 70 0 67 1;
#X restore 376 -215 pd tempo;
#X obj 50 -42 r \$0random;
#X obj 125 -73 s \$0random;
#X obj 125 -145 bng 45 250 50 0 empty empty empty 17 7 0 10 -262144
-1 -1;
#X obj 85 25 select 0;
#N canvas 277 24 940 629 naoReceive 0;
#X obj 108 -59 unpackOSC;
#X obj 106 -17 prepend set;
#X obj 82 113 print hello;
#X obj 74 55 routeOSC /nao;
#X obj 164 109 prepend set;
#X msg 164 135 /instructions;
#X obj 290 95 routeOSC /instructions /tempo_big /tempo_small /hand_horizontal
/hand_horizontal_back /hand_vertical /hand_vertical_back /end;
#X msg 72 344 1;
#X msg 113 345 0;
#X text 55 410 instruction busy;
#X msg 209 343 1;
#X msg 250 344 0;
#X text 192 409 sequence start;
#X obj 318 481 s tempo;
#X obj 432 487 s \$0time;
#X obj 507 489 s leftY\$0;
#X obj 587 489 s leftX\$0;
#X msg 324 340 1000;
#X msg 421 338 1;
#X msg 458 337 0;
#X msg 499 337 1;
#X msg 544 335 0;
#X msg 596 335 1;
#X msg 641 333 0;
#X obj 318 366 resample 10;
#X obj 318 389 smooth 0.01;
#X obj 431 376 resample 10;
#X obj 431 399 smooth 0.01;
#X obj 507 376 resample 10;
#X obj 507 399 smooth 0.01;
#X obj 586 376 resample 10;
#X obj 586 399 smooth 0.01;
#X obj 71 381 s instructions;
#X obj 196 386 s sequenceStart;
#X msg 108 17 /nao/instructions;
#X obj 108 -90 udpreceive 1235;
#X obj 323 437 gate;
#X obj 438 439 gate;
#X obj 509 443 gate;
#X obj 583 442 gate;
#X obj 319 414 r instructions;
#X obj 418 418 r instructions;
#X obj 492 419 r instructions;
#X obj 584 419 r instructions;
#X msg 372 338 500;
#X obj 761 335;
#X connect 0 0 1 0;
#X connect 0 0 3 0;
#X connect 1 0 34 0;
#X connect 3 0 2 0;
#X connect 3 0 4 0;
#X connect 3 0 6 0;
#X connect 4 0 5 0;
#X connect 6 0 7 0;
#X connect 6 0 11 0;
#X connect 6 1 10 0;
#X connect 6 1 17 0;
#X connect 6 1 18 0;
#X connect 6 2 10 0;
#X connect 6 2 44 0;
#X connect 6 2 19 0;
#X connect 6 3 10 0;
#X connect 6 3 20 0;
#X connect 6 4 10 0;
#X connect 6 4 21 0;
#X connect 6 5 10 0;
#X connect 6 5 22 0;
#X connect 6 6 10 0;
#X connect 6 6 23 0;
#X connect 6 7 8 0;
#X connect 6 7 11 0;
#X connect 7 0 32 0;
#X connect 8 0 32 0;
#X connect 10 0 33 0;
#X connect 11 0 33 0;
#X connect 17 0 24 0;
#X connect 18 0 26 0;
#X connect 19 0 26 0;
#X connect 20 0 28 0;
#X connect 21 0 28 0;
#X connect 22 0 30 0;
#X connect 23 0 30 0;
#X connect 24 0 25 0;
#X connect 25 0 36 1;
#X connect 26 0 27 0;
#X connect 27 0 37 1;
#X connect 28 0 29 0;
#X connect 29 0 38 1;
#X connect 30 0 31 0;
#X connect 31 0 39 1;
#X connect 36 0 13 0;
#X connect 37 0 14 0;
#X connect 38 0 15 0;
#X connect 39 0 16 0;
#X connect 40 0 36 0;
#X connect 41 0 37 0;
#X connect 42 0 38 0;
#X connect 43 0 39 0;
#X connect 44 0 24 0;
#X restore 376 -192 pd naoReceive;
#X obj 67 -87 r tempo;
#X obj 16 -158 r sequenceStart;
#N canvas 692 360 639 305 matlabReceive 1;
#X obj 30 -99 timer;
#X obj 30 -120 t b b;
#X floatatom 30 -78 8 0 0 0 - - -;
#X obj 30 -142 udpreceive 7001;
#X obj 87 86 t b;
#X floatatom 97 63 5 0 0 0 - - -;
#X msg 87 110 1;
#X obj 87 136 s sequenceStart;
#X obj 136 62 s tempo;
#X obj 87 -34 moses 3600;
#X obj 87 -4 / 4;
#X obj 30 -56 moses 1800;
#X obj 87 21 smooth 0.1;
#X connect 0 0 2 0;
#X connect 1 0 0 0;
#X connect 1 1 0 1;
#X connect 2 0 11 0;
#X connect 3 0 1 0;
#X connect 4 0 6 0;
#X connect 6 0 7 0;
#X connect 9 0 10 0;
#X connect 10 0 12 0;
#X connect 11 0 10 0;
#X connect 11 1 9 0;
#X connect 12 0 4 0;
#X connect 12 0 5 0;
#X connect 12 0 8 0;
#X restore 375 -149 pd matlabReceive;
#X obj 26 51 s count;
#N canvas 690 12 651 289 matlabSend 1;
#X obj 146 179 udpsend;
#X msg 290 119 disconnect;
#X obj 288 69 loadbang;
#X msg 146 157 send \$1;
#X msg 288 92 connect 10.0.1.7 7002;
#X obj 89 -99 r tempo;
#X floatatom 152 -49 5 0 0 0 - - -;
#X obj 89 -76 / 2;
#X obj 89 -51 * 8;
#X obj 146 40 / 8;
#X obj 146 65 - 200;
#X floatatom 146 92 5 0 0 0 - - -;
#X obj 146 136 i;
#X obj 89 -23 moses 1800;
#X obj 146 10 moses 3600;
#X obj 89 9 * 2;
#X obj 203 39 / 2;
#X obj 146 113 + 0.5;
#X connect 1 0 0 0;
#X connect 2 0 4 0;
#X connect 3 0 0 0;
#X connect 4 0 0 0;
#X connect 5 0 7 0;
#X connect 7 0 6 0;
#X connect 7 0 8 0;
#X connect 8 0 13 0;
#X connect 9 0 10 0;
#X connect 10 0 11 0;
#X connect 11 0 17 0;
#X connect 12 0 3 0;
#X connect 13 0 15 0;
#X connect 13 1 14 0;
#X connect 14 0 9 0;
#X connect 14 1 16 0;
#X connect 15 0 13 0;
#X connect 16 0 14 0;
#X connect 17 0 12 0;
#X restore 377 -127 pd matlabSend;
#N canvas 130 280 450 300 sound 1;
#X obj 24 162 dac~;
#X obj 119 133 freeverb~;
#X msg 208 112 damping \$1;
#N canvas 311 0 1043 680 bass 0;
#X obj 102 92 r count;
#X obj 101 501 outlet~;
#X obj 102 370 perk-bassdrum;
#X floatatom 119 192 5 0 0 0 - - -;
#X floatatom 136 214 5 0 0 0 - - -;
#X obj 119 146 random 4;
#X obj 119 170 + 3;
#X obj 180 145 random 16;
#X obj 163 305 r \$0leftY;
#X msg 161 328 5 \$1;
#X obj 241 308 r \$0leftX;
#X msg 237 332 3 \$1;
#X obj 119 118 r \$0random;
#N canvas 629 213 450 300 euclid 0;
#X obj 49 68 inlet;
#X obj 138 157 inlet;
#X obj 106 131 inlet;
#X obj 49 267 select 1;
#X obj 49 299 outlet;
#X obj 162 185 inlet;
#X text 145 130 specify desired number of hits per bar;
#X text 208 182 specify length of bar;
#X text 172 156 rhythm offset/rotation;
#X text 88 66 <-- send an integer to find out if there should be a
hit on that beat;
#X obj 49 201 % \$3;
#X text 111 266 <-- bang out on each hit. (Silent on rest.);
#X obj 49 137 + \$2;
#X obj 49 169 * \$1;
#X obj 49 235 < \$1;
#X connect 0 0 12 0;
#X connect 1 0 12 1;
#X connect 2 0 13 1;
#X connect 2 0 14 1;
#X connect 3 0 4 0;
#X connect 5 0 10 1;
#X connect 10 0 14 0;
#X connect 12 0 13 0;
#X connect 13 0 10 0;
#X connect 14 0 3 0;
#X restore 102 258 pd euclid;
#X obj 153 234 init 16;
#X obj 353 340 r \$0random;
#X obj 353 362 random 1000;
#X obj 353 383 / 4000;
#X obj 353 435 r \$0random;
#X obj 353 457 random 1000;
#X obj 353 478 / 4000;
#X msg 353 408 6 \$1;
#X msg 353 503 4 \$1;
#X obj 174 213 r length;
#X connect 0 0 13 0;
#X connect 2 0 1 0;
#X connect 3 0 13 1;
#X connect 4 0 13 2;
#X connect 5 0 6 0;
#X connect 6 0 3 0;
#X connect 7 0 4 0;
#X connect 8 0 9 0;
#X connect 9 0 2 1;
#X connect 10 0 11 0;
#X connect 11 0 2 1;
#X connect 12 0 5 0;
#X connect 12 0 7 0;
#X connect 13 0 2 0;
#X connect 14 0 13 3;
#X connect 15 0 16 0;
#X connect 16 0 17 0;
#X connect 17 0 21 0;
#X connect 18 0 19 0;
#X connect 19 0 20 0;
#X connect 20 0 22 0;
#X connect 21 0 2 1;
#X connect 22 0 2 1;
#X connect 23 0 13 3;
#X restore 23 62 pd bass;
#N canvas 419 70 450 562 snare 0;
#N canvas 629 213 450 300 euclid 0;
#X obj 49 68 inlet;
#X obj 138 157 inlet;
#X obj 106 131 inlet;
#X obj 49 267 select 1;
#X obj 49 299 outlet;
#X obj 162 185 inlet;
#X text 145 130 specify desired number of hits per bar;
#X text 208 182 specify length of bar;
#X text 172 156 rhythm offset/rotation;
#X text 88 66 <-- send an integer to find out if there should be a
hit on that beat;
#X obj 49 201 % \$3;
#X text 111 266 <-- bang out on each hit. (Silent on rest.);
#X obj 49 137 + \$2;
#X obj 49 169 * \$1;
#X obj 49 235 < \$1;
#X connect 0 0 12 0;
#X connect 1 0 12 1;
#X connect 2 0 13 1;
#X connect 2 0 14 1;
#X connect 3 0 4 0;
#X connect 5 0 10 1;
#X connect 10 0 14 0;
#X connect 12 0 13 0;
#X connect 13 0 10 0;
#X connect 14 0 3 0;
#X restore 89 222 pd euclid;
#X obj 89 277 perk-snare;
#X floatatom 82 176 5 0 0 0 - - -;
#X floatatom 108 196 5 0 0 0 - - -;
#X obj 45 84 random 4;
#X obj 59 114 + 3;
#X obj 115 83 random 16;
#X obj 222 172 loadbang;
#X msg 222 203 0 0.8 \, 2 1 \, 4 0.2;
#X obj 226 229 r \$0leftY;
#X msg 224 252 7 \$1;
#X obj 294 227 r \$0leftX;
#X msg 290 251 2 \$1;
#X obj 40 36 r \$0random;
#X obj 18 210 r count;
#X obj 96 434 outlet~;
#X obj 333 320 r \$0random;
#X obj 333 342 random 1000;
#X obj 333 363 / 1000;
#X msg 333 388 2 \$1;
#X obj 364 111 r \$0random;
#X obj 364 133 random 1000;
#X msg 364 179 0 \$1;
#X obj 364 154 / 1000;
#X obj 146 185 init 16;
#X obj 152 146 r length;
#X connect 0 0 1 0;
#X connect 1 0 15 0;
#X connect 2 0 0 1;
#X connect 3 0 0 2;
#X connect 4 0 5 0;
#X connect 5 0 2 0;
#X connect 6 0 3 0;
#X connect 7 0 8 0;
#X connect 8 0 1 1;
#X connect 9 0 10 0;
#X connect 10 0 1 1;
#X connect 11 0 12 0;
#X connect 12 0 1 1;
#X connect 13 0 4 0;
#X connect 13 0 6 0;
#X connect 14 0 0 0;
#X connect 16 0 17 0;
#X connect 17 0 18 0;
#X connect 18 0 19 0;
#X connect 19 0 1 1;
#X connect 20 0 21 0;
#X connect 21 0 23 0;
#X connect 22 0 1 1;
#X connect 23 0 22 0;
#X connect 24 0 0 3;
#X connect 25 0 0 3;
#X restore 23 38 pd snare;
#N canvas 707 72 450 565 hat 0;
#X obj 40 -88 r count;
#X obj 50 125 perk-hihat;
#X obj 108 32 r \$0time;
#X msg 106 95 7 \$1;
#X obj 46 65 r \$0leftY;
#X msg 42 88 10 \$1;
#X obj 168 67 r \$0leftX;
#X msg 166 90 8 \$1;
#X obj 50 436 outlet~;
#X obj 307 -31 hradio 15 1 0 8 empty empty empty 0 -8 0 10 -262144
-1 -1 0;
#X msg 310 115 1;
#X obj 295 52 ==;
#X obj 292 77 select 1;
#X obj 307 -79 r \$0random;
#X obj 295 19 % 4;
#X obj 114 65 * 0.5;
#X obj 110 -22 hsl 128 15 0 127 0 0 empty empty empty -2 -8 0 10 -262144
-1 -1 900 1;
#X obj 110 6 / 127;
#X msg 250 89 2;
#X obj 307 -56 random 4;
#X obj 272 168 r \$0random;
#X obj 272 190 random 1000;
#X obj 272 211 / 1000;
#X msg 272 236 0 \$1;
#X obj -11 -102 t b f;
#X obj -11 -55 pow;
#X msg -11 -79 2;
#X obj 32 14 % 1;
#X obj 204 304 r \$0random;
#X obj 204 327 random 4;
#X obj 183 360 % 8;
#X obj 183 384 == 0;
#X obj 183 408 select 1;
#X msg 228 431 1;
#X msg 183 430 0;
#X obj 51 409 *~;
#X floatatom -11 -29 5 0 0 0 - - -;
#X obj -11 -126 random 3;
#X floatatom 301 405 5 0 0 0 - - -;
#X obj 279 304 r \$0random;
#X obj 279 327 random 2;
#X obj 279 350 expr ($f1 + 1) * 4;
#X connect 0 0 14 0;
#X connect 0 0 27 0;
#X connect 0 0 30 0;
#X connect 1 0 35 0;
#X connect 2 0 15 1;
#X connect 3 0 1 1;
#X connect 4 0 5 0;
#X connect 5 0 1 1;
#X connect 6 0 7 0;
#X connect 7 0 1 1;
#X connect 9 0 11 1;
#X connect 10 0 15 0;
#X connect 11 0 12 0;
#X connect 12 0 18 0;
#X connect 12 1 10 0;
#X connect 13 0 19 0;
#X connect 14 0 11 0;
#X connect 15 0 3 0;
#X connect 16 0 17 0;
#X connect 17 0 15 1;
#X connect 18 0 15 0;
#X connect 19 0 9 0;
#X connect 20 0 21 0;
#X connect 21 0 22 0;
#X connect 22 0 23 0;
#X connect 23 0 1 1;
#X connect 24 0 26 0;
#X connect 24 1 25 1;
#X connect 25 0 27 1;
#X connect 25 0 36 0;
#X connect 26 0 25 0;
#X connect 27 0 1 0;
#X connect 28 0 29 0;
#X connect 29 0 31 1;
#X connect 30 0 31 0;
#X connect 31 0 32 0;
#X connect 32 0 34 0;
#X connect 32 1 33 0;
#X connect 33 0 35 1;
#X connect 33 0 38 0;
#X connect 34 0 35 1;
#X connect 34 0 38 0;
#X connect 35 0 8 0;
#X connect 37 0 24 0;
#X connect 39 0 40 0;
#X connect 40 0 41 0;
#X connect 41 0 30 1;
#X restore 24 14 pd hat;
#N canvas 575 71 450 453 bassII 0;
#X obj 60 32 r count;
#X obj 60 55 % 4;
#X obj 60 86 select 0;
#X obj 61 137 perk-bassdrum;
#X msg 129 101 6 \$1;
#X obj 131 78 r \$0time;
#X obj 191 79 r \$0leftY;
#X msg 189 102 5 \$1;
#X obj 63 275 outlet~;
#X obj 284 81 loadbang;
#X obj 20 133 bng 15 250 50 0 empty empty empty 17 7 0 10 -262144 -1
-1;
#X msg 284 104 7 0.2 \, 3 0.3 \, 4 1 \, 0 0.2 \, 1 1;
#X connect 0 0 1 0;
#X connect 1 0 2 0;
#X connect 2 0 3 0;
#X connect 2 0 10 0;
#X connect 3 0 8 0;
#X connect 4 0 3 1;
#X connect 5 0 4 0;
#X connect 6 0 7 0;
#X connect 7 0 3 1;
#X connect 9 0 11 0;
#X connect 11 0 3 1;
#X restore 23 83 pd bassII;
#X obj 24 131 *~ 0.5;
#X msg 208 90 roomsize 0.1;
#X msg 289 93 wet 0.8;
#X msg 289 115 dry 0.8;
#X obj 297 158 r \$0random;
#X obj 297 180 random 1000;
#X obj 297 201 / 1000;
#N canvas 593 142 673 300 chords 0;
#X obj 87 52 chord_gen;
#X obj 33 170 syn-simpleFM;
#X obj 115 88 unpack f f f;
#X obj 101 123 mtof;
#X obj 132 121 mtof;
#X obj 172 118 mtof;
#X obj 227 168 syn-simpleFM;
#X obj 427 169 syn-simpleFM;
#X obj 79 15 r count;
#X obj 67 285 outlet~;
#X obj 236 88 +;
#X obj 265 88 +;
#X obj 297 90 +;
#X obj 220 268 / 127;
#X obj 300 268 hsl 128 15 0 127 0 0 empty empty empty -2 -8 0 10 -262144
-1 -1 0 1;
#X obj 70 259 *~;
#X msg 324 29 12;
#X msg 135 24 generate;
#X obj 135 2 r \$0random;
#X msg 362 31 0;
#X obj 297 -37 random 3;
#X obj 297 -13 select 0 1 2;
#X obj 297 -61 r \$0random;
#X obj 481 11 r \$0random;
#X obj 481 36 random 1000;
#X obj 481 59 / 5000;
#X obj 561 36 random 1000;
#X obj 561 59 / 5000;
#X obj 481 86 random 1000;
#X obj 481 109 / 5000;
#X obj 561 86 random 1000;
#X obj 561 109 / 5000;
#X msg 375 100 0 \$1;
#X msg 378 123 0 \$1;
#X msg 420 98 0 \$1;
#X msg 426 128 2 \$1;
#X obj 435 267 init 10;
#X msg 286 30 24;
#X connect 0 0 2 0;
#X connect 1 0 15 0;
#X connect 2 0 10 0;
#X connect 2 1 11 0;
#X connect 2 2 12 0;
#X connect 3 0 1 0;
#X connect 4 0 6 0;
#X connect 5 0 7 0;
#X connect 6 0 15 0;
#X connect 7 0 15 0;
#X connect 8 0 0 0;
#X connect 10 0 3 0;
#X connect 11 0 4 0;
#X connect 12 0 5 0;
#X connect 13 0 15 1;
#X connect 14 0 13 0;
#X connect 15 0 9 0;
#X connect 16 0 10 1;
#X connect 16 0 11 1;
#X connect 16 0 12 1;
#X connect 17 0 0 0;
#X connect 18 0 17 0;
#X connect 19 0 12 1;
#X connect 19 0 11 1;
#X connect 19 0 10 1;
#X connect 20 0 21 0;
#X connect 21 0 19 0;
#X connect 21 1 16 0;
#X connect 21 2 37 0;
#X connect 22 0 20 0;
#X connect 23 0 24 0;
#X connect 23 0 28 0;
#X connect 23 0 26 0;
#X connect 23 0 30 0;
#X connect 24 0 25 0;
#X connect 25 0 32 0;
#X connect 26 0 27 0;
#X connect 27 0 34 0;
#X connect 28 0 29 0;
#X connect 29 0 33 0;
#X connect 30 0 31 0;
#X connect 31 0 35 0;
#X connect 32 0 1 1;
#X connect 33 0 6 1;
#X connect 34 0 7 1;
#X connect 35 0 7 1;
#X connect 35 0 6 1;
#X connect 35 0 1 1;
#X connect 36 0 14 0;
#X connect 37 0 10 1;
#X connect 37 0 11 1;
#X connect 37 0 12 1;
#X restore 125 16 pd chords;
#N canvas 600 139 673 300 bassline 0;
#X obj 87 52 chord_gen;
#X obj 33 170 syn-simpleFM;
#X obj 101 123 mtof;
#X obj 79 15 r count;
#X obj 67 285 outlet~;
#X obj 236 88 +;
#X obj 220 268 / 127;
#X obj 300 268 hsl 128 15 0 127 0 0 empty empty empty -2 -8 0 10 -262144
-1 -1 0 1;
#X obj 70 259 *~;
#X msg 324 29 12;
#X msg 135 24 generate;
#X obj 135 2 r \$0random;
#X msg 362 31 0;
#X obj 297 -37 random 3;
#X obj 297 -13 select 0 1 2;
#X obj 297 -61 r \$0random;
#X obj 481 11 r \$0random;
#X obj 481 36 random 1000;
#X obj 481 59 / 5000;
#X obj 561 36 random 1000;
#X obj 561 59 / 5000;
#X obj 481 86 random 1000;
#X obj 481 109 / 5000;
#X obj 561 86 random 1000;
#X obj 561 109 / 5000;
#X msg 375 100 0 \$1;
#X msg 378 123 0 \$1;
#X msg 420 98 0 \$1;
#X msg 426 128 2 \$1;
#X obj 435 267 init 10;
#X obj 28 107 zl nth;
#X floatatom 20 134 5 0 0 0 - - -;
#X obj 12 48 random 3;
#X obj 27 19 t b;
#X msg 286 30 -12;
#X connect 0 0 30 0;
#X connect 1 0 8 0;
#X connect 2 0 1 0;
#X connect 3 0 0 0;
#X connect 3 0 33 0;
#X connect 5 0 2 0;
#X connect 6 0 8 1;
#X connect 7 0 6 0;
#X connect 8 0 4 0;
#X connect 9 0 5 1;
#X connect 10 0 0 0;
#X connect 11 0 10 0;
#X connect 12 0 5 1;
#X connect 13 0 14 0;
#X connect 14 0 12 0;
#X connect 14 1 9 0;
#X connect 14 2 34 0;
#X connect 15 0 13 0;
#X connect 16 0 17 0;
#X connect 16 0 21 0;
#X connect 16 0 19 0;
#X connect 16 0 23 0;
#X connect 17 0 18 0;
#X connect 18 0 25 0;
#X connect 19 0 20 0;
#X connect 20 0 27 0;
#X connect 21 0 22 0;
#X connect 22 0 26 0;
#X connect 23 0 24 0;
#X connect 24 0 28 0;
#X connect 25 0 1 1;
#X connect 28 0 1 1;
#X connect 29 0 7 0;
#X connect 30 0 31 0;
#X connect 31 0 5 0;
#X connect 32 0 30 1;
#X connect 33 0 32 0;
#X connect 34 0 5 1;
#X restore 127 46 pd bassline;
#X connect 1 0 0 0;
#X connect 1 1 0 1;
#X connect 2 0 1 0;
#X connect 3 0 7 0;
#X connect 4 0 7 0;
#X connect 5 0 7 0;
#X connect 6 0 7 0;
#X connect 7 0 0 0;
#X connect 7 0 0 1;
#X connect 7 0 1 0;
#X connect 8 0 1 0;
#X connect 9 0 1 0;
#X connect 10 0 1 0;
#X connect 11 0 12 0;
#X connect 12 0 13 0;
#X connect 13 0 2 0;
#X connect 13 0 8 0;
#X connect 14 0 7 0;
#X connect 15 0 7 0;
#X restore 508 -215 pd sound;
#N canvas 0 0 1366 696 naoSend 0;
#X obj 119 105 expr sqrt($f1*$f1 + $f2*$f2);
#X obj 119 131 variance 100;
#X obj 119 192 tgl 50 0 empty empty empty 17 7 0 10 -262144 -1 -1 0
1;
#X obj 119 159 > 0.006;
#X obj 398 602 udpsend;
#X obj 343 539 packOSC;
#X msg 398 538 disconnect;
#X msg 119 272 send /kinect/leftmoving \$1;
#X obj 119 249 change;
#X obj 477 512 loadbang;
#X msg 477 537 connect 10.0.1.5 1338;
#X obj 119 77 r \$0leftY;
#X obj 284 79 r \$0leftX;
#X obj 487 239 tgl 15 0 empty empty empty 17 7 0 10 -262144 -1 -1 1
1;
#X msg 487 264 send /kinect/tempo \$1;
#X obj 487 212 r sequenceStart;
#X connect 0 0 1 0;
#X connect 1 0 3 0;
#X connect 2 0 8 0;
#X connect 3 0 2 0;
#X connect 5 0 4 0;
#X connect 6 0 4 0;
#X connect 7 0 5 0;
#X connect 8 0 7 0;
#X connect 9 0 10 0;
#X connect 10 0 4 0;
#X connect 11 0 0 0;
#X connect 12 0 0 1;
#X connect 13 0 14 0;
#X connect 14 0 5 0;
#X connect 15 0 13 0;
#X restore 375 -170 pd naoSend;
#X obj 16 -112 change;
#X obj 16 -64 metro 200;
#X floatatom 160 2 5 0 0 0 - - -;
#X obj 160 49 s tempo;
#X obj 85 50 s \$0random;
#X obj 160 25 resample 3000;
#X obj 85 2 % 8;
#X obj 543 -58 s length;
#X obj 543 -103 random 2;
#X obj 543 -79 expr ($f1 + 1) * 16;
#X obj 167 -42 r length;
#X obj 543 -126 r \$0random;
#X msg 120 -42 max \$1;
#X obj 17 141 hradio 30 1 0 16 empty empty empty 0 -8 0 10 -262144
-1 -1 15;
#X obj 17 119 + 16;
#X connect 1 0 19 0;
#X connect 3 0 4 0;
#X connect 3 3 25 0;
#X connect 4 0 2 0;
#X connect 4 0 15 0;
#X connect 4 0 33 0;
#X connect 5 0 8 0;
#X connect 7 0 3 2;
#X connect 9 0 8 0;
#X connect 10 0 23 0;
#X connect 12 0 20 1;
#X connect 13 0 1 0;
#X connect 19 0 5 0;
#X connect 19 0 20 0;
#X connect 20 0 3 0;
#X connect 21 0 24 0;
#X connect 25 0 10 0;
#X connect 27 0 28 0;
#X connect 28 0 26 0;
#X connect 29 0 31 0;
#X connect 30 0 27 0;
#X connect 31 0 3 0;
#X connect 33 0 32 0;
